<?xml version="1.0" encoding="utf-8"?>
<!-- Generator: Adobe Illustrator 21.1.0, SVG Export Plug-In . SVG Version: 6.00 Build 0)  -->
<svg version="1.1" id="Layer_1" xmlns="http://www.w3.org/2000/svg" xmlns:xlink="http://www.w3.org/1999/xlink" x="0px" y="0px"
	 viewBox="0 0 16 16" style="enable-background:new 0 0 16 16;" xml:space="preserve">
<style type="text/css">
	.st0{fill:#FFD700;}
</style>
<path class="st0" d="M0,5c0,2.4,1.7,4.4,4,4.9c0.1-0.7,0.2-1.4,0.5-2.1C3.7,7.5,3.1,6.9,3,5.9H2.5V5.5H3V5.1C3,5,3,5,3,4.9H2.5V4.5
	H3c0.2-1.2,1.2-2,2.7-2c0.3,0,0.6,0,0.8,0.1v0.7C6.2,3.3,6,3.2,5.7,3.2C4.8,3.2,4.1,3.7,4,4.5h1.9v0.4h-2c0,0,0,0.1,0,0.1v0.4h2v0.4
	H3.9c0.1,0.6,0.5,1,1,1.2C6,5.4,7.8,4.2,9.9,4C9.4,1.3,6.7-0.4,4,0.1C1.7,0.6,0,2.6,0,5z M16,10.5c0,3-2.5,5.5-5.5,5.5
	S5,13.5,5,10.5S7.5,5,10.5,5S16,7.5,16,10.5z M8.3,11.8c0.1,0.8,0.7,1.5,2,1.6V14h0.5v-0.6c1.3-0.1,2-0.7,2-1.7
	c0-0.9-0.6-1.3-1.6-1.5l-0.4-0.1V8.4c0.5,0.1,0.9,0.3,1,0.7h0.9c-0.1-0.8-0.8-1.4-1.9-1.5V7h-0.5v0.6C9.1,7.7,8.4,8.4,8.4,9.3
	c0,0.8,0.5,1.3,1.4,1.5l0.4,0.1v1.8c-0.6-0.1-0.9-0.4-1-0.8H8.3z M10.2,9.9C9.7,9.8,9.4,9.6,9.4,9.2c0-0.4,0.3-0.7,0.8-0.8L10.2,9.9
	L10.2,9.9L10.2,9.9z M10.8,11c0.6,0.1,0.9,0.4,0.9,0.8c0,0.5-0.4,0.8-1,0.9L10.8,11C10.8,11,10.8,11,10.8,11z"/>
</svg>
